<?xml version="1.0" encoding="UTF-8" standalone="no"?>
<svg width="130px" height="46px" viewBox="0 0 130 46" version="1.1" xmlns="http://www.w3.org/2000/svg" xmlns:xlink="http://www.w3.org/1999/xlink">
    <!-- Generator: Sketch 3.8.3 (29802) - http://www.bohemiancoding.com/sketch -->
    <title>logotipo</title>
    <desc>Created with Sketch.</desc>
    <defs></defs>
    <g id="Symbols" stroke="none" stroke-width="1" fill="none" fill-rule="evenodd">
        <g id="header" transform="translate(-130.000000, -17.000000)" fill="#277CEA">
            <g id="logotipo" transform="translate(130.000000, 17.000000)">
                <polygon id="Fill-1" points="28.543538 12.1575098 30.8590825 12.1575098 30.8590825 23.2829303 37.7881254 23.2829303 37.7881254 25.4020375 28.543538 25.4020375"></polygon>
                <polygon id="Fill-2" points="40.198703 12.1575098 49.9705842 12.1575098 49.9705842 14.2386757 42.5142475 14.2386757 42.5142475 17.6818476 49.1232244 17.6818476 49.1232244 19.7634447 42.5142475 19.7634447 42.5142475 23.3208716 50.0645446 23.3208716 50.0645446 25.4020375 40.198703 25.4020375"></polygon>
                <polygon id="Fill-3" points="52.8141947 12.1575098 54.9602673 12.1575098 62.0210264 21.314726 62.0210264 12.1575098 64.2992442 12.1575098 64.2992442 25.4020375 62.3599703 25.4020375 55.0924125 15.9792323 55.0924125 25.4020375 52.8141947 25.4020375"></polygon>
                <path d="M66.8045974,23.4718607 L68.1976997,21.8071867 C69.4590858,22.904466 70.7397789,23.5287727 72.3585578,23.5287727 C73.7894158,23.5287727 74.6938383,22.8475541 74.6938383,21.8636675 L74.6938383,21.8261573 C74.6938383,20.8797809 74.1661155,20.3688669 71.7184257,19.8010411 C68.9133432,19.1202536 67.3318911,18.287701 67.3318911,15.846524 L67.3318911,15.8090139 C67.3318911,13.5385727 69.2145314,11.9678896 71.8316931,11.9678896 C73.7520891,11.9678896 75.2773366,12.5546861 76.6138053,13.6334259 L75.371297,15.3929532 C74.1849934,14.5034887 72.9991188,14.030516 71.7939373,14.030516 C70.4385908,14.030516 69.6474356,14.7307052 69.6474356,15.600768 L69.6474356,15.6387093 C69.6474356,16.6605371 70.2498119,17.1145391 72.7918911,17.7198752 C75.5785248,18.4010937 77.0093828,19.403951 77.0093828,21.5985096 L77.0093828,21.6364509 C77.0093828,24.115138 75.0701089,25.5909679 72.3019241,25.5909679 C70.2875677,25.5909679 68.3860495,24.8907787 66.8045974,23.4718607" id="Fill-4"></path>
                <path d="M79.1572145,18.8176287 L79.1572145,18.7796874 C79.1572145,15.0144457 81.9627261,11.9299914 85.9545413,11.9299914 C88.3833531,11.9299914 89.851967,12.7815147 91.1133531,13.9926178 L89.6258614,15.7146349 C88.5712739,14.7303172 87.442033,14.0680693 85.9356634,14.0680693 C83.4313399,14.0680693 81.5860264,16.1496663 81.5860264,18.7417462 L81.5860264,18.7796874 C81.5860264,21.3717673 83.412462,23.4719038 85.9356634,23.4719038 C87.5544422,23.4719038 88.5901518,22.8286265 89.7198218,21.7692885 L91.2073135,23.2826285 C89.8330891,24.7205171 88.3267195,25.6289523 85.8601518,25.6289523 C82.0193597,25.6289523 79.1572145,22.6203806 79.1572145,18.8176287" id="Fill-6"></path>
                <path d="M102.05738,18.8176287 L102.05738,18.7796874 C102.05738,16.2061471 100.193188,14.0680693 97.5764554,14.0680693 C94.9588647,14.0680693 93.132429,16.1682058 93.132429,18.7417462 L93.132429,18.7796874 C93.132429,21.3527966 94.9966205,23.4719038 97.6137822,23.4719038 C100.230944,23.4719038 102.05738,21.3907379 102.05738,18.8176287 M90.7036172,18.8176287 L90.7036172,18.7796874 C90.7036172,15.052387 93.5657624,11.9299914 97.6137822,11.9299914 C101.661802,11.9299914 104.486191,15.0144457 104.486191,18.7417462 L104.486191,18.7796874 C104.486191,22.5069879 101.624046,25.6289523 97.5764554,25.6289523 C93.5280066,25.6289523 90.7036172,22.5449292 90.7036172,18.8176287" id="Fill-8"></path>
                <path d="M112.300779,19.0445866 C114.051703,19.0445866 115.143617,18.0607 115.143617,16.6797234 L115.143617,16.6417821 C115.143617,15.0900696 114.032825,14.2764877 112.300779,14.2764877 L109.608535,14.2764877 L109.608535,19.0445866 L112.300779,19.0445866 Z M107.292132,12.1573805 L112.4887,12.1573805 C115.57695,12.1573805 117.497347,13.9169077 117.497347,16.5848701 L117.497347,16.6228114 C117.497347,19.5930107 115.124739,21.1447232 112.225267,21.1447232 L109.608535,21.1447232 L109.608535,25.4019082 L107.292132,25.4019082 L107.292132,12.1573805 Z" id="Fill-10"></path>
                <polygon id="Fill-12" points="119.869782 12.1575098 129.641663 12.1575098 129.641663 14.2386757 122.185756 14.2386757 122.185756 17.6818476 128.794733 17.6818476 128.794733 19.7634447 122.185756 19.7634447 122.185756 23.3208716 129.736053 23.3208716 129.736053 25.4020375 119.869782 25.4020375"></polygon>
                <path d="M0.0416171617,23.111979 C0.0416171617,27.8085069 2.81151815,31.8643444 6.79260726,33.7204495 C6.8050495,33.667849 6.81706271,33.6182667 6.82993399,33.5648039 C7.0560396,32.5947142 7.2769967,31.5780601 7.49280528,30.5286386 C4.92455446,29.0627251 3.18693069,26.2882684 3.18693069,23.111979 C3.18693069,18.8923041 6.25158416,15.3810103 10.2588449,14.7066901 C10.4433333,13.5796614 10.6226733,12.4927297 10.7981518,11.4596919 C4.79326733,11.9050709 0.0416171617,16.959023 0.0416171617,23.111979" id="Fill-14"></path>
                <path d="M12.8867756,31.5455082 C12.6525182,32.6915076 12.4191188,33.7724032 12.1848614,34.7864703 C18.3489208,34.5096714 23.2799109,29.3798367 23.2799109,23.1121946 C23.2799109,18.2975313 20.371,14.1550324 16.2285908,12.366618 C16.0535413,13.3962066 15.8737723,14.4844318 15.6888548,15.6144786 C18.3343333,17.0584033 20.1341683,19.8776997 20.1341683,23.1121946 C20.1341683,27.3930929 16.9802739,30.9457772 12.8867756,31.5455082" id="Fill-16"></path>
                <g id="Group-20" stroke-width="1" transform="translate(0.000000, 0.090973)">
                    <path d="M17.5245149,0.389631163 C14.9987393,0.822075621 13.3254719,3.83064734 12.2571551,9.85770724 C12.2395644,9.95687197 12.2219736,10.0599171 12.2039538,10.1603752 C12.1365941,10.5453931 12.0683762,10.9381717 11.9997294,11.341729 C11.8281122,12.3454485 11.6530627,13.4043554 11.4728647,14.5020659 C11.4085083,14.8948444 11.3437228,15.2910722 11.2785083,15.6937672 C11.2287393,15.998591 11.1785413,16.3055705 11.1283432,16.6147058 C10.4367261,20.8649924 9.67560396,25.5421185 8.82910231,29.7824886 C8.74972937,30.180441 8.66949835,30.5732196 8.58883828,30.9625489 C8.38976238,31.9205665 8.18639604,32.8531461 7.97788119,33.7451975 C7.95170957,33.8585902 7.92553795,33.966378 7.89936634,34.0767526 C7.80326073,34.4807411 7.70844224,34.8661901 7.61533993,35.2326685 C6.19005941,40.8497038 5.12946535,42.1772177 4.77593399,42.47773 C4.53524092,42.2772448 3.90454785,41.5861097 3.03273267,39.4014676 C2.70923432,38.5904725 1.79408581,38.1968317 0.987056106,38.5223507 C0.181313531,38.8478697 -0.209973597,39.7692394 0.113524752,40.5802344 C1.00121452,42.8054047 2.43550495,45.7023083 4.76349175,45.7018772 C4.86732013,45.7018772 4.97372277,45.6962722 5.08184158,45.6842 C7.42012541,45.4250783 9.06936634,42.3932244 10.6941518,35.8552505 C10.7885413,35.4771311 10.8820726,35.0882329 10.976033,34.6868313 C11.2042838,33.7107054 11.4329637,32.6634397 11.6633597,31.5446028 C11.7435908,31.1557046 11.8238218,30.7581834 11.9049109,30.3520391 C12.6342838,26.6820818 13.3911155,22.2955514 14.2324686,17.1260509 C14.2822376,16.8203648 14.3320066,16.5164034 14.3809175,16.2150288 C14.4469901,15.8106092 14.5117756,15.4122256 14.5765611,15.0172913 C14.7567591,13.9178563 14.9322376,12.8585182 15.1029967,11.8569544 C15.1720726,11.4546906 15.2394323,11.0640677 15.3067921,10.6816368 C15.3226667,10.5923885 15.3385413,10.5009845 15.3539868,10.4130297 C16.2845809,5.16117934 17.5253729,3.6004127 18.0518086,3.50900869 C18.5876832,3.41501777 19.7645479,4.64940309 20.3797954,5.73331672 C20.8075512,6.49300479 21.765604,6.76074957 22.5211485,6.33175432 C23.2775512,5.90275907 23.5452739,4.93784312 23.1183762,4.17686159 C22.8699604,3.73363836 20.6041848,-0.137666516 17.5245149,0.389631163" id="Fill-18"></path>
                </g>
            </g>
        </g>
    </g>
</svg>